<svg version="1.1" id="Layer_1" xmlns="http://www.w3.org/2000/svg" xmlns:xlink="http://www.w3.org/1999/xlink" x="0px" y="0px"
	 width="100%" viewBox="0 0 2000 1500" enable-background="new 0 0 2000 1500" xml:space="preserve">
<path fill="#000000" opacity="1.000000" stroke="none" 
	d="
M1355.000000,1501.000000 
	C903.333496,1501.000000 452.166931,1501.000000 1.000303,1501.000000 
	C1.000202,1001.000305 1.000202,501.000580 1.000101,1.000638 
	C667.666199,1.000425 1334.332397,1.000425 2000.998901,1.000213 
	C2000.999268,500.999359 2000.999268,1000.998718 2000.999634,1500.999023 
	C1785.833374,1501.000000 1570.666626,1501.000000 1355.000000,1501.000000 
M797.714905,894.004028 
	C798.825500,892.314819 800.314392,890.763672 800.989258,888.915405 
	C809.369141,865.965149 817.627014,842.970459 825.931946,819.992798 
	C826.385010,818.739319 826.975769,817.535583 827.634827,816.000549 
	C827.634827,836.849976 827.571716,857.139221 827.663025,877.427734 
	C827.704895,886.731079 827.898987,886.895203 819.339661,889.832520 
	C815.868286,891.023865 814.761963,892.540527 816.551086,895.682861 
	C829.301147,895.682861 841.910461,895.682861 854.641907,895.682861 
	C854.641907,893.326843 854.641907,891.256531 854.641907,889.224976 
	C849.931091,888.630432 845.511841,888.072693 840.689270,887.463989 
	C840.689270,885.496643 840.713867,883.849792 840.685547,882.203857 
	C840.338806,862.047058 840.022522,841.889709 839.615845,821.734131 
	C839.411865,811.627441 839.338257,811.634705 848.351685,807.620239 
	C848.922119,807.366150 849.406311,806.918579 849.777771,806.665283 
	C850.064880,803.113953 848.543518,802.078918 845.347473,802.188843 
	C839.189514,802.400513 833.013550,802.405029 826.856201,802.183838 
	C823.869934,802.076599 822.496765,803.008240 821.508789,805.931091 
	C817.144653,818.841858 812.547607,831.675415 807.914307,844.493225 
	C803.693420,856.170105 799.317139,867.790649 794.691467,878.721741 
	C786.008484,854.645142 777.357483,830.556763 768.570740,806.518066 
	C767.981995,804.907471 766.411255,802.496033 765.220459,802.450195 
	C756.287170,802.105896 747.334595,802.262695 738.227783,802.262695 
	C738.227783,804.874634 738.227783,806.836365 738.227783,808.996460 
	C741.932373,809.517883 745.486389,810.018066 749.137024,810.531860 
	C749.137024,812.603088 749.184814,814.258301 749.129822,815.910095 
	C748.408691,837.558350 747.548157,859.203308 747.047974,880.856506 
	C746.949585,885.115784 746.136108,887.658142 741.529175,888.458374 
	C738.879883,888.918518 736.410339,890.414001 732.715149,891.905518 
	C734.492981,893.723694 735.559509,895.777405 736.670776,895.801880 
	C747.621521,896.043335 758.579712,895.947754 769.704651,895.947754 
	C769.704651,893.378174 769.704651,891.302490 769.704651,889.249207 
	C765.696838,888.676514 761.959106,888.142456 758.935608,887.710449 
	C758.425659,864.648315 757.926147,842.059143 757.836182,819.137756 
	C757.970825,819.024719 758.105408,818.911682 758.789246,819.288269 
	C768.139404,845.133301 777.489563,870.978333 786.913208,897.026428 
	C790.687683,895.874023 793.834839,894.913086 797.714905,894.004028 
M798.147522,418.117706 
	C798.147522,418.117706 798.152588,418.216003 798.858154,418.087738 
	C820.971252,405.090240 843.084412,392.092712 865.903992,379.017456 
	C869.881348,377.004059 873.849426,374.972107 877.837524,372.980347 
	C898.603210,362.609497 920.363525,355.068207 943.889343,350.097626 
	C944.718750,350.038239 945.560242,350.049164 946.375793,349.909088 
	C965.440857,346.635345 984.585266,345.157227 1003.940186,346.682404 
	C1008.360229,347.030701 1012.920471,346.490753 1017.334961,345.822845 
	C1025.054321,344.654907 1030.419556,339.046875 1030.876587,331.433044 
	C1031.263062,324.995575 1030.956299,318.516418 1030.956299,312.022614 
	C1021.166504,313.078613 1019.453918,312.524567 1011.737610,306.078522 
	C1009.697144,304.373932 1007.676880,302.628632 1005.511475,301.093567 
	C999.892944,297.110535 994.301086,295.369110 987.209778,298.441528 
	C972.664612,304.743317 957.765442,310.227844 942.275208,316.077454 
	C930.190613,322.441864 918.105957,328.806274 905.772034,335.301971 
	C906.115479,331.972748 906.882446,328.234833 906.746155,324.530121 
	C906.658630,322.149811 905.868042,318.924774 904.211548,317.764435 
	C903.013428,316.925201 899.646484,318.472656 897.662048,319.653595 
	C895.419189,320.988342 893.617554,323.078369 891.665222,324.884521 
	C886.782776,329.401611 882.272278,334.420197 876.942505,338.322479 
	C872.820312,341.340668 867.683838,342.973633 862.178650,345.003815 
	C860.062317,344.675751 857.956970,344.197144 855.828003,344.042999 
	C835.722595,342.587280 816.119446,357.514862 808.379211,375.774109 
	C806.120239,381.102966 803.657471,383.894226 797.071289,383.362793 
	C791.942932,382.969116 786.820740,382.425537 781.684814,382.217194 
	C774.110229,381.909912 766.056580,380.213196 759.529175,385.394501 
	C751.354065,391.883667 743.720459,399.054871 735.238281,406.178925 
	C717.466003,423.617157 699.577637,440.939789 682.011963,458.583740 
	C678.141907,462.471039 675.416504,467.497955 671.977478,472.748322 
	C668.091919,486.940582 661.498962,499.517426 650.548401,509.652252 
	C641.563538,517.967712 632.800842,526.523193 623.303833,535.180969 
	C593.374878,560.551147 576.155701,593.042725 569.633728,631.431274 
	C565.939209,653.177856 563.545593,675.203613 558.652283,696.667236 
	C555.621033,709.963135 557.988159,720.868652 565.038086,731.650085 
	C566.213257,733.447144 567.033142,735.479126 567.990417,737.415710 
	C580.922424,763.577698 590.157166,790.937988 594.768860,819.808838 
	C595.820251,826.390869 592.484436,829.722717 585.972168,828.403503 
	C585.172241,828.241455 584.356628,828.157043 583.192993,827.983765 
	C582.812622,842.776611 581.973267,857.333801 588.195496,871.199280 
	C593.961487,884.047913 599.461792,897.015686 605.100098,909.921814 
	C615.037048,932.667786 624.989990,955.406738 635.016724,978.887207 
	C639.734070,992.111633 644.410706,1005.350891 649.232483,1018.537109 
	C649.710632,1019.844971 650.903564,1021.581421 652.055115,1021.843689 
	C661.065857,1023.895752 665.054871,1030.298218 667.018311,1038.515747 
	C668.477905,1044.624268 669.351990,1050.898560 671.174683,1056.889648 
	C676.261536,1073.610229 683.606323,1089.037354 698.282043,1100.644897 
	C711.485718,1111.151978 726.667847,1113.826294 743.852783,1112.127686 
	C756.469788,1112.108398 767.612549,1115.475342 777.527466,1123.968018 
	C782.726074,1128.421021 789.788330,1130.698242 796.541443,1134.469849 
	C805.601379,1135.951660 814.669006,1137.388550 823.716675,1138.941650 
	C826.558594,1139.429565 829.569031,1139.761108 832.119385,1140.971313 
	C840.841919,1145.110352 849.394104,1149.608398 858.458557,1154.493530 
	C871.026184,1161.533081 883.696716,1168.397339 896.114014,1175.692749 
	C901.585388,1178.907227 906.493713,1183.459351 913.031860,1176.024902 
	C913.031860,1181.455933 913.031860,1185.569580 913.031860,1190.229858 
	C915.302795,1189.871216 917.196960,1189.572144 919.985046,1189.306885 
	C934.991211,1187.802612 949.997375,1186.298340 965.914795,1184.940186 
	C985.290649,1183.355835 1004.598999,1184.255615 1024.576172,1186.802002 
	C1032.123535,1188.417725 1039.657471,1190.101685 1047.227051,1191.605591 
	C1049.375977,1192.032471 1051.646362,1192.181030 1053.831665,1192.030640 
	C1060.522949,1191.569580 1067.200195,1190.901245 1074.506104,1190.725098 
	C1085.189209,1192.475464 1094.277222,1197.957397 1103.694702,1202.816895 
	C1107.348755,1204.702271 1111.784424,1205.462769 1115.947754,1205.860840 
	C1120.076294,1206.255371 1121.354004,1204.018066 1120.279297,1199.823730 
	C1120.003174,1198.746094 1119.757202,1197.660889 1119.498657,1196.584595 
	C1121.190796,1195.556519 1122.597046,1194.702026 1124.743286,1193.835815 
	C1133.670776,1191.536255 1142.697876,1189.558228 1151.492188,1186.829468 
	C1157.852295,1184.855957 1161.985107,1187.010986 1165.547485,1191.978149 
	C1167.376831,1194.528931 1169.318481,1197.105835 1171.665039,1199.147217 
	C1173.779053,1200.986328 1176.514282,1202.111206 1179.911987,1204.098877 
	C1179.911987,1198.638184 1179.861328,1194.542847 1179.926270,1190.449463 
	C1179.992676,1186.261963 1181.326416,1182.676270 1185.949097,1180.183350 
	C1192.826050,1180.183350 1199.703003,1180.183350 1206.675781,1180.183350 
	C1206.675781,1176.273071 1206.276855,1173.089478 1206.776855,1170.053833 
	C1207.401978,1166.259521 1207.641113,1161.512085 1210.000244,1159.041992 
	C1222.349609,1146.111938 1235.317627,1133.772705 1248.812134,1121.040039 
	C1251.031006,1119.338501 1252.701782,1119.532227 1254.643311,1121.846191 
	C1258.196899,1126.081421 1262.147461,1129.983643 1266.751709,1134.899414 
	C1267.304443,1126.272827 1264.732788,1120.065796 1260.274414,1114.527710 
	C1258.298828,1112.073853 1255.979492,1109.899536 1253.940674,1107.492798 
	C1252.032349,1105.239990 1252.061646,1102.998413 1255.222534,1102.183105 
	C1265.392334,1099.559570 1275.414795,1092.136108 1286.593872,1102.244263 
	C1282.875488,1092.076050 1283.911621,1089.759644 1292.719482,1087.626343 
	C1295.720947,1086.899292 1298.963745,1087.017090 1302.096680,1087.010986 
	C1313.465698,1086.988770 1317.930298,1083.281982 1320.143677,1072.147461 
	C1320.834717,1068.671509 1321.993896,1065.288574 1323.505859,1061.524048 
	C1354.615723,1026.611450 1379.221802,987.573853 1397.546509,944.574219 
	C1401.799072,934.594971 1405.786255,924.502502 1409.895508,914.462158 
	C1407.125366,915.173584 1405.279419,916.489929 1403.501953,917.893127 
	C1392.417236,926.643188 1383.296875,937.113159 1375.870117,949.124939 
	C1371.242188,956.609863 1368.587646,957.364990 1360.605347,953.960022 
	C1358.969849,958.853149 1357.338013,963.735046 1355.706299,968.616882 
	C1355.447754,968.549988 1355.189209,968.483154 1354.930664,968.416260 
	C1355.209473,965.002197 1355.488281,961.588074 1355.768188,958.161255 
	C1355.192993,958.131165 1354.762695,957.970520 1354.572144,958.118530 
	C1342.643066,967.376221 1330.733643,976.659119 1318.178101,986.124268 
	C1294.416504,1003.735840 1270.654907,1021.347473 1246.232178,1039.118896 
	C1225.821655,1052.788208 1205.411133,1066.457520 1184.236816,1080.187012 
	C1174.828491,1083.967407 1171.929810,1082.819580 1165.252441,1072.434692 
	C1162.108521,1075.171875 1159.200684,1078.168823 1155.819946,1080.471313 
	C1153.812134,1081.838867 1151.059570,1082.112671 1148.641846,1082.878296 
	C1147.989990,1080.477539 1147.277832,1078.090820 1146.718384,1075.668701 
	C1146.517822,1074.799927 1146.686157,1073.845825 1146.686157,1072.777954 
	C1143.310669,1072.777954 1140.257690,1073.196045 1137.369629,1072.683838 
	C1132.559814,1071.830933 1129.923950,1073.818359 1127.994385,1077.965942 
	C1127.133179,1079.817017 1125.387817,1081.256714 1123.983154,1082.169434 
	C1122.810425,1079.986450 1121.637573,1077.803345 1120.464844,1075.620361 
	C1119.955078,1075.750122 1119.445435,1075.880005 1118.935669,1076.009766 
	C1118.197632,1080.147705 1117.459473,1084.285645 1116.738403,1088.328125 
	C1112.993774,1083.065796 1112.149414,1083.407104 1105.609741,1092.879761 
	C1101.441895,1087.484863 1097.241211,1082.047607 1093.040527,1076.610352 
	C1092.820801,1076.791382 1092.600952,1076.972412 1092.381226,1077.153442 
	C1093.047119,1081.415283 1093.713013,1085.677124 1094.378906,1089.938965 
	C1093.900513,1090.053101 1093.421997,1090.167236 1092.943604,1090.281372 
	C1091.754395,1089.323975 1090.565186,1088.366699 1089.000977,1087.107300 
	C1088.637695,1090.535522 1088.422241,1093.509155 1087.963257,1096.444824 
	C1087.776489,1097.639160 1087.366943,1099.087646 1086.534790,1099.844238 
	C1082.020996,1103.947632 1077.343628,1107.870850 1071.879150,1111.934082 
	C1067.931274,1112.307739 1063.951416,1112.478394 1060.041382,1113.093018 
	C1047.679077,1115.036133 1035.343140,1117.145386 1022.219727,1119.130493 
	C1016.963318,1121.562866 1011.832031,1120.789673 1006.307739,1119.519653 
	C992.292603,1116.297974 978.115906,1113.779053 963.368286,1110.519653 
	C948.578003,1108.686890 933.787659,1106.854126 918.251953,1104.663452 
	C905.793823,1103.112915 893.270203,1101.950562 880.902100,1099.866089 
	C873.490356,1098.616821 866.321594,1095.926025 858.695801,1093.222656 
	C848.210510,1087.885376 837.725281,1082.548096 826.809937,1076.991943 
	C837.118469,1070.943848 839.688782,1066.378906 836.715149,1060.322388 
	C831.176208,1068.040649 822.381714,1067.637451 814.392761,1069.066650 
	C813.352539,1069.252686 811.845581,1067.801880 810.803772,1066.839600 
	C806.171936,1062.561401 801.630554,1058.185059 796.790955,1053.239624 
	C788.595398,1045.500366 780.457214,1037.699341 772.189148,1030.038452 
	C762.849854,1021.384888 753.393860,1012.857239 743.401245,1003.901245 
	C729.304077,990.251221 715.206909,976.601196 700.844849,962.330688 
	C693.295166,954.371094 685.819214,946.340027 678.178833,938.468445 
	C666.262268,926.191467 656.647400,912.456970 650.391113,896.423645 
	C646.795776,887.209717 642.803223,878.150757 638.847534,868.298401 
	C636.300476,862.790039 633.753479,857.281616 631.102478,851.548462 
	C624.856079,857.146790 622.112671,856.919922 618.716187,851.177063 
	C615.836304,846.307983 615.400330,839.025818 618.746948,836.969849 
	C621.104492,835.521484 624.699280,836.086914 628.257812,835.696594 
	C626.162170,820.730042 624.318298,804.286072 621.437134,788.025879 
	C619.148132,775.107666 618.210510,762.726257 625.930176,751.194885 
	C626.097046,750.945557 626.044922,750.549744 626.683960,749.807251 
	C628.159363,745.627991 630.419617,741.550354 630.975769,737.252136 
	C633.550659,717.352722 635.540466,697.378479 637.954102,677.457031 
	C640.504822,656.405151 642.399109,635.218201 646.210083,614.388489 
	C651.087341,587.730835 661.966736,563.142212 676.672485,539.687927 
	C684.132751,529.565369 690.944458,518.874023 699.205078,509.453339 
	C711.642212,495.269836 725.092651,481.974854 738.734863,468.016052 
	C757.912048,451.372803 774.552673,431.718750 797.534851,418.904663 
	C797.771851,418.644073 798.008850,418.383514 798.147522,418.117706 
M1118.184814,326.852631 
	C1115.009033,329.943176 1111.833252,333.033722 1108.486694,336.290405 
	C1098.805298,332.261475 1087.909058,333.168854 1077.589111,336.098999 
	C1063.917480,339.980804 1060.582520,355.916199 1070.565552,367.026215 
	C1083.741577,381.689484 1101.028320,388.043091 1120.851196,390.937653 
	C1129.206055,392.248383 1137.814209,391.192352 1145.577637,396.626434 
	C1154.892212,403.146393 1165.113892,408.370605 1175.280640,414.736084 
	C1178.221069,416.605774 1181.208130,418.406677 1184.094360,420.356689 
	C1200.728027,431.595276 1217.337891,442.869110 1234.270142,454.720978 
	C1253.183228,468.140259 1272.096436,481.559540 1291.418823,495.513794 
	C1304.177490,509.127441 1316.627686,500.425537 1329.613281,493.638611 
	C1329.613281,500.093475 1328.632446,505.442657 1329.808228,510.266052 
	C1332.649658,521.920837 1336.442749,533.347046 1339.954956,544.833923 
	C1343.656982,556.941040 1351.819092,565.250793 1363.067993,571.737732 
	C1365.330444,574.161987 1367.950317,576.342957 1369.794312,579.052063 
	C1378.518188,591.868347 1377.449219,605.691650 1373.608643,619.758972 
	C1373.153564,621.425720 1372.540649,623.561218 1373.176025,624.936523 
	C1381.529663,643.015808 1391.278198,660.320862 1406.943848,673.099792 
	C1411.868774,677.117371 1414.447998,680.700562 1414.242310,687.083984 
	C1414.159424,689.658203 1416.323242,693.179382 1418.537109,694.611267 
	C1419.781372,695.416016 1423.215942,692.841736 1425.659058,691.778748 
	C1426.148071,691.565918 1426.615234,691.303040 1427.570190,690.823242 
	C1426.385254,701.953491 1424.821289,712.495239 1424.258545,723.090088 
	C1423.691528,733.766296 1422.978271,744.584229 1426.723022,755.058777 
	C1429.616211,723.205200 1433.428345,691.558899 1444.953247,661.092712 
	C1435.729736,662.726990 1436.077148,674.421814 1427.003052,676.298401 
	C1427.003052,673.992371 1427.067749,672.208618 1426.992920,670.430786 
	C1426.405151,656.463928 1426.339478,642.447632 1425.057007,628.543945 
	C1423.104126,607.372620 1420.282104,586.281860 1417.875122,565.151611 
	C1417.192383,559.157715 1415.468384,553.748169 1412.097046,548.520264 
	C1399.666626,529.244141 1387.682129,509.680542 1375.513794,490.235138 
	C1372.198242,484.936829 1368.826660,479.673523 1365.222046,473.898285 
	C1353.136353,454.504059 1341.269775,434.968658 1328.893921,415.761475 
	C1319.456543,401.114960 1306.826050,389.357086 1292.719727,378.183167 
	C1292.400146,378.094055 1292.000854,378.098053 1291.772217,377.902557 
	C1274.530518,363.160767 1254.997192,352.286133 1233.638184,343.183472 
	C1225.931152,340.285492 1218.380005,336.830353 1210.480347,334.620850 
	C1198.786499,331.350067 1186.845337,328.963379 1174.276367,326.034882 
	C1161.698242,325.759613 1149.119995,325.289276 1136.541992,325.295105 
	C1130.658569,325.297821 1124.775635,326.220612 1118.184814,326.852631 
M990.224243,716.642883 
	C1001.698059,727.110596 1014.891663,731.899414 1030.505615,729.099487 
	C1045.733643,726.368774 1058.999512,719.263062 1071.518677,710.647766 
	C1075.933838,707.609375 1077.619385,702.822632 1076.438599,697.422791 
	C1074.342529,687.838501 1064.664185,683.844604 1055.792969,688.603210 
	C1047.910400,692.831482 1040.069946,697.236816 1031.851318,700.714233 
	C1022.495300,704.672974 1013.979370,702.661621 1006.986816,694.940491 
	C1002.088318,689.531433 997.009766,684.285461 991.757507,678.349426 
	C979.800903,665.619507 965.799438,656.685730 948.076782,654.405640 
	C934.392456,652.645081 921.753052,654.002502 912.146057,665.392944 
	C905.505737,673.265991 904.140747,682.820251 904.054993,692.568115 
	C903.861572,714.549927 903.977356,736.534363 903.967712,758.517761 
	C903.966492,761.324036 903.967529,764.130249 903.967529,767.068359 
	C930.207642,767.068359 956.071289,767.068359 982.352478,767.068359 
	C981.510376,746.875793 980.684082,727.063232 979.821777,706.386230 
	C983.758911,710.138000 986.850037,713.083557 990.224243,716.642883 
M974.950806,593.636353 
	C965.161926,576.904846 947.283569,570.343384 930.596191,577.357910 
	C914.570129,584.094421 905.961609,601.730591 910.536682,618.453247 
	C915.857422,637.901001 936.385193,648.715576 955.404541,642.090698 
	C974.976196,635.273560 983.812134,613.991089 974.950806,593.636353 
M1065.976074,825.601746 
	C1046.338257,828.057007 1033.053833,843.500305 1033.512451,863.341064 
	C1033.916138,880.808655 1044.484619,894.433533 1060.020020,897.591125 
	C1063.767700,898.352844 1067.103760,898.100342 1070.332886,895.581421 
	C1073.945923,892.762939 1077.945435,890.440063 1081.434448,888.128418 
	C1084.130737,891.090271 1086.240479,893.905823 1088.876221,896.085022 
	C1090.126221,897.118408 1092.643311,897.684875 1094.131104,897.163452 
	C1098.480835,895.638977 1102.601685,893.460999 1107.091187,891.411804 
	C1106.236328,889.172913 1105.496826,887.236450 1104.788940,885.382751 
	C1094.734375,887.188660 1094.562378,887.045288 1094.562256,877.290161 
	C1094.562012,851.295898 1094.569580,825.301575 1094.555542,799.307312 
	C1094.552856,794.359619 1090.547607,789.673767 1086.312500,790.299683 
	C1080.644165,791.137329 1075.073242,792.634705 1069.078003,793.931458 
	C1069.857178,796.924988 1070.387085,798.961243 1070.945801,801.108032 
	C1074.696533,801.108032 1078.115845,801.108032 1081.450317,801.108032 
	C1081.450317,809.870789 1081.450317,818.289856 1081.450317,826.549927 
	C1076.370605,826.184631 1071.611206,825.842407 1065.976074,825.601746 
M1216.048706,836.369751 
	C1218.329346,835.471985 1220.610107,834.574219 1224.062256,833.215332 
	C1222.430420,831.341980 1221.269775,828.810120 1220.018066,828.764038 
	C1210.773071,828.424438 1201.509766,828.580322 1192.294922,828.580322 
	C1192.294922,831.302368 1192.294922,833.370911 1192.294922,836.264038 
	C1199.826172,833.467102 1200.836548,838.724060 1202.549316,843.596375 
	C1207.399048,857.392883 1212.599121,871.066772 1217.388062,884.883545 
	C1219.190552,890.083984 1221.169922,894.797546 1227.615967,896.338440 
	C1220.071289,905.009766 1210.509888,909.575562 1201.002808,914.278198 
	C1203.534912,918.814819 1205.787354,922.850220 1208.107178,927.006348 
	C1220.557983,919.750244 1230.491211,910.212463 1236.026978,897.494629 
	C1242.902832,881.698120 1248.256958,865.230469 1254.041138,848.971802 
	C1256.458374,842.177673 1257.102051,834.208435 1268.697998,834.127625 
	C1266.459961,831.379822 1265.366089,828.816223 1264.176392,828.770874 
	C1255.228516,828.429932 1246.261841,828.584961 1237.181030,828.584961 
	C1237.181030,831.145447 1237.181030,833.227356 1237.181030,835.535583 
	C1239.897095,835.765869 1242.347168,835.973633 1246.026978,836.285645 
	C1241.052124,852.683350 1236.222900,868.685669 1231.274902,884.651184 
	C1231.036011,885.421692 1229.752319,885.868286 1229.331787,886.183533 
	C1226.118408,874.658936 1223.027832,863.521912 1219.903931,852.394226 
	C1218.444824,847.196106 1216.921509,842.016052 1216.048706,836.369751 
M987.163330,826.666931 
	C977.964783,828.833435 971.222778,834.398071 967.208069,842.684692 
	C960.795654,855.920715 960.894470,869.467102 967.907288,882.474304 
	C974.341553,894.408020 986.851440,900.434692 999.695496,898.551514 
	C1013.241028,896.565491 1022.891541,887.696411 1025.714478,873.888916 
	C1026.735718,868.893982 1027.132690,863.605286 1026.774292,858.523987 
	C1025.439819,839.594788 1012.728760,822.041199 987.163330,826.666931 
M873.895081,893.682129 
	C888.897156,903.118286 901.422119,894.033569 914.752197,888.500244 
	C913.980896,886.370972 913.327148,884.566467 912.685608,882.795349 
	C894.669312,887.967224 889.889221,888.197388 882.879028,884.339539 
	C874.364136,879.653625 869.311218,868.127808 871.338501,858.920715 
	C882.454773,858.920715 893.435730,858.939087 904.416626,858.913513 
	C910.460938,858.899414 916.557190,851.340515 915.331238,845.447021 
	C912.307007,830.908386 897.860901,822.337341 882.683960,826.667542 
	C867.752747,830.927734 860.074097,841.926453 857.745117,856.668152 
	C855.340271,871.889526 859.625244,884.669189 873.895081,893.682129 
M1171.067383,854.504517 
	C1171.067383,849.710754 1171.067383,844.916931 1171.067383,840.503662 
	C1175.087891,839.658569 1179.098389,839.774292 1181.841675,837.966797 
	C1184.538940,836.189514 1188.757690,833.807434 1186.411133,828.409424 
	C1181.726685,828.409424 1176.970581,828.409424 1171.811279,828.409424 
	C1170.719238,818.829712 1169.676147,809.678894 1168.645020,800.634277 
	C1177.594360,797.376831 1184.105591,801.223145 1190.443359,806.128235 
	C1193.172241,802.207642 1195.707275,798.565552 1198.295776,794.846497 
	C1191.539551,788.220764 1183.940918,786.295532 1175.469727,788.885925 
	C1166.141602,791.738342 1160.821777,798.665710 1159.141602,807.950500 
	C1158.114624,813.626831 1158.306396,819.556519 1158.306763,825.372375 
	C1158.306885,828.312683 1157.704712,830.088989 1154.477295,830.482910 
	C1149.089966,831.140564 1147.511719,834.124695 1149.816772,839.525513 
	C1152.353394,839.525513 1155.085693,839.525513 1158.231567,839.525513 
	C1158.231567,852.586853 1158.231567,865.225159 1158.231567,877.863403 
	C1158.231567,887.244568 1158.230591,887.242188 1149.747070,890.838806 
	C1149.460693,890.960205 1149.238037,891.231689 1148.776245,891.600586 
	C1148.948364,892.901794 1149.137695,894.333130 1149.323730,895.739929 
	C1160.715576,895.739929 1171.833252,895.739929 1183.309204,895.739929 
	C1183.590820,893.480347 1183.850952,891.393982 1184.177856,888.770996 
	C1179.699341,887.849060 1175.535156,886.991882 1171.067383,886.072144 
	C1171.067383,875.795959 1171.067383,865.649658 1171.067383,854.504517 
M1045.807373,642.868713 
	C1040.321167,641.218628 1035.199219,642.241211 1030.608032,645.421936 
	C1027.322021,647.698547 1026.903320,651.483521 1029.784668,653.371887 
	C1035.702393,657.250061 1042.113403,656.875427 1048.426758,654.322388 
	C1053.891724,652.112427 1055.932251,647.814880 1055.836792,642.005371 
	C1055.656128,631.011780 1055.966553,620.008362 1055.682617,609.019104 
	C1055.587769,605.346130 1056.935669,603.835510 1060.175537,602.610107 
	C1068.876465,599.319397 1077.431396,595.644043 1086.057617,592.154663 
	C1087.197021,591.693665 1088.414795,591.426147 1089.660889,591.049500 
	C1089.660889,604.123840 1089.660889,616.729187 1089.660889,629.939575 
	C1083.447998,627.629761 1077.607178,627.553223 1072.172363,630.954529 
	C1068.459106,633.278503 1067.819336,636.979980 1070.961548,639.651367 
	C1076.339111,644.222900 1082.684448,643.982239 1088.907227,641.866211 
	C1094.619385,639.923706 1097.027466,635.941895 1097.037476,629.542847 
	C1097.063965,612.714783 1097.051880,595.886658 1097.037598,579.058594 
	C1097.036499,577.830872 1096.895264,576.603210 1096.793945,574.968689 
	C1080.943481,581.437683 1065.540894,587.636292 1050.261841,594.125610 
	C1049.032715,594.647644 1048.002930,597.161011 1047.981079,598.764038 
	C1047.800293,612.090759 1047.914429,625.421265 1047.826538,638.749817 
	C1047.817139,640.170654 1047.085449,641.586792 1045.807373,642.868713 
M946.752869,800.783081 
	C946.743164,794.383057 943.353516,789.681396 938.518372,790.310364 
	C932.857178,791.046692 927.304504,792.616699 921.310059,793.910278 
	C922.070374,796.922058 922.584290,798.958008 923.119324,801.077393 
	C926.818604,801.077393 930.218506,801.077393 933.923157,801.077393 
	C933.923157,803.216553 933.923218,805.025391 933.923218,806.834229 
	C933.923218,830.140320 933.594055,853.453796 934.114807,876.748230 
	C934.280823,884.175171 933.114563,889.171753 924.988953,890.336243 
	C924.382080,890.423218 923.835876,890.933472 923.202393,891.279297 
	C923.162720,893.657959 922.693481,896.043335 926.434326,896.002380 
	C936.219788,895.895142 946.007202,895.966248 955.985352,895.966248 
	C956.380188,893.516785 956.717590,891.423767 957.119568,888.930237 
	C953.507507,888.026245 950.211975,887.201538 946.752869,886.335815 
	C946.752869,857.967407 946.752869,829.842529 946.752869,800.783081 
M1115.015625,837.019348 
	C1116.614136,837.019348 1118.212646,837.019348 1120.204834,837.019348 
	C1120.204834,850.494324 1119.742554,863.642151 1120.384644,876.735962 
	C1120.748413,884.154846 1119.447144,889.195374 1111.302856,890.393921 
	C1110.721313,890.479492 1110.212646,891.061890 1109.511841,891.515808 
	C1109.779419,892.999573 1110.035767,894.421631 1110.267944,895.709229 
	C1121.155762,895.709229 1131.774292,895.709229 1142.724121,895.709229 
	C1142.914917,893.389771 1143.087402,891.292847 1143.289429,888.836121 
	C1139.836426,888.001587 1136.663208,887.234680 1133.253296,886.410522 
	C1133.191162,885.093506 1133.077393,883.791016 1133.076294,882.488403 
	C1133.063843,866.501282 1133.082764,850.514221 1133.056519,834.527100 
	C1133.050659,830.913757 1129.145386,825.977966 1126.001953,826.409851 
	C1119.903687,827.247498 1113.901123,828.781372 1107.591431,830.081909 
	C1108.458008,833.252686 1108.969482,835.124390 1109.497192,837.055359 
	C1111.212036,837.055359 1112.692871,837.055359 1115.015625,837.019348 
M1132.604126,798.852722 
	C1129.688721,797.497437 1125.950562,794.260986 1124.000732,795.113647 
	C1115.700684,798.743408 1115.575684,805.920532 1122.782959,811.019592 
	C1126.444580,813.610168 1129.154419,813.165527 1131.468140,809.687439 
	C1133.554565,806.550903 1138.124023,803.651062 1132.604126,798.852722 
z"/>
<path fill="#F76CAF" opacity="1.000000" stroke="none" 
	d="
M626.094971,750.222229 
	C626.044922,750.549744 626.097046,750.945557 625.930176,751.194885 
	C618.210510,762.726257 619.148132,775.107666 621.437134,788.025879 
	C624.318298,804.286072 626.162170,820.730042 628.257812,835.696594 
	C624.699280,836.086914 621.104492,835.521484 618.746948,836.969849 
	C615.400330,839.025818 615.836304,846.307983 618.716187,851.177063 
	C622.112671,856.919922 624.856079,857.146790 631.102478,851.548462 
	C633.753479,857.281616 636.300476,862.790039 638.755737,869.038086 
	C637.752258,874.907837 636.840576,880.037964 635.614014,884.992188 
	C631.177307,875.728882 630.651794,875.120544 626.157227,874.706482 
	C627.045044,876.304626 627.980652,877.624390 628.551697,879.086426 
	C630.128723,883.124084 631.520630,887.233521 633.047241,891.291443 
	C634.658630,895.574585 636.340942,899.830994 637.994019,904.561584 
	C637.662048,926.694336 637.396057,948.366211 636.909241,970.033081 
	C636.848145,972.751648 635.622375,975.444092 634.936218,978.148621 
	C624.989990,955.406738 615.037048,932.667786 605.100098,909.921814 
	C599.461792,897.015686 593.961487,884.047913 588.195496,871.199280 
	C581.973267,857.333801 582.812622,842.776611 583.192993,827.983765 
	C584.356628,828.157043 585.172241,828.241455 585.972168,828.403503 
	C592.484436,829.722717 595.820251,826.390869 594.768860,819.808838 
	C590.157166,790.937988 580.922424,763.577698 567.990417,737.415710 
	C567.033142,735.479126 566.213257,733.447144 565.038086,731.650085 
	C557.988159,720.868652 555.621033,709.963135 558.652283,696.667236 
	C563.545593,675.203613 565.939209,653.177856 569.633728,631.431274 
	C576.155701,593.042725 593.374878,560.551147 623.941528,535.307495 
	C625.052734,537.463684 625.954285,539.497681 625.934326,541.522522 
	C625.705139,564.822388 625.129578,588.120178 625.048706,611.419922 
	C624.895020,655.744446 624.988892,700.069824 625.048157,744.394836 
	C625.050720,746.337769 625.730591,748.279785 626.094971,750.222229 
M615.956482,875.760742 
	C612.819458,877.628479 611.828552,879.554321 614.855530,882.690430 
	C617.770630,885.710510 620.124634,889.272095 622.725159,892.595764 
	C621.856750,887.302063 620.438171,882.197205 618.820190,877.156311 
	C618.594238,876.452393 617.388611,876.062927 615.956482,875.760742 
z"/>
<path fill="#C169CF" opacity="1.000000" stroke="none" 
	d="
M989.941040,716.029053 
	C986.850037,713.083557 983.758911,710.138000 979.821777,706.386230 
	C980.684082,727.063232 981.510376,746.875793 982.352478,767.068359 
	C956.071289,767.068359 930.207642,767.068359 903.967529,767.068359 
	C903.967529,764.130249 903.966492,761.324036 903.967712,758.517761 
	C903.977356,736.534363 903.861572,714.549927 904.054993,692.568115 
	C904.140747,682.820251 905.505737,673.265991 912.146057,665.392944 
	C921.753052,654.002502 934.392456,652.645081 948.076782,654.405640 
	C965.799438,656.685730 979.800903,665.619507 991.810181,679.045776 
	C991.639526,681.034851 991.198975,682.332581 991.227844,683.619690 
	C991.431091,692.686035 991.845093,701.749512 991.899963,710.815674 
	C991.910461,712.549438 990.627380,714.291016 989.941040,716.029053 
z"/>
<path fill="#7965F9" opacity="1.000000" stroke="none" 
	d="
M1365.480957,474.394104 
	C1368.826660,479.673523 1372.198242,484.936829 1375.513794,490.235138 
	C1387.682129,509.680542 1399.666626,529.244141 1412.097046,548.520264 
	C1415.468384,553.748169 1417.192383,559.157715 1417.875122,565.151611 
	C1420.282104,586.281860 1423.104126,607.372620 1425.057007,628.543945 
	C1426.339478,642.447632 1426.405151,656.463928 1426.992920,670.430786 
	C1427.067749,672.208618 1427.003052,673.992371 1427.003052,676.298401 
	C1436.077148,674.421814 1435.729736,662.726990 1444.953247,661.092712 
	C1433.428345,691.558899 1429.616211,723.205200 1426.723022,755.058777 
	C1422.978271,744.584229 1423.691528,733.766296 1424.258545,723.090088 
	C1424.821289,712.495239 1426.385254,701.953491 1427.570190,690.823242 
	C1426.615234,691.303040 1426.148071,691.565918 1425.659058,691.778748 
	C1423.215942,692.841736 1419.781372,695.416016 1418.537109,694.611267 
	C1416.323242,693.179382 1414.159424,689.658203 1414.242310,687.083984 
	C1414.447998,680.700562 1411.868774,677.117371 1406.943848,673.099792 
	C1391.278198,660.320862 1381.529663,643.015808 1373.176025,624.936523 
	C1372.540649,623.561218 1373.153564,621.425720 1373.608643,619.758972 
	C1377.449219,605.691650 1378.518188,591.868347 1369.794312,579.052063 
	C1367.950317,576.342957 1365.330444,574.161987 1363.174805,571.111267 
	C1363.521118,568.363525 1363.964966,566.242676 1363.968994,564.120972 
	C1364.016846,538.316345 1363.935303,512.511230 1364.066284,486.707092 
	C1364.087158,482.600464 1364.987305,478.498291 1365.480957,474.394104 
z"/>
<path fill="#EC6BB5" opacity="1.000000" stroke="none" 
	d="
M634.976440,978.517944 
	C635.622375,975.444092 636.848145,972.751648 636.909241,970.033081 
	C637.396057,948.366211 637.662048,926.694336 638.340210,904.558716 
	C640.965210,905.452087 643.245728,906.810852 645.829590,908.350342 
	C642.330017,900.156067 639.129456,892.662048 635.928894,885.168030 
	C636.840576,880.037964 637.752258,874.907837 638.826782,869.399902 
	C642.803223,878.150757 646.795776,887.209717 650.391113,896.423645 
	C656.647400,912.456970 666.262268,926.191467 678.178833,938.468445 
	C685.819214,946.340027 693.295166,954.371094 700.726196,962.976746 
	C700.405273,965.086792 700.037964,966.549194 700.024475,968.014954 
	C699.660828,1007.565796 699.362183,1047.117188 698.960144,1086.667725 
	C698.914856,1091.127441 698.319885,1095.581665 697.979797,1100.038452 
	C683.606323,1089.037354 676.261536,1073.610229 671.174683,1056.889648 
	C669.351990,1050.898560 668.477905,1044.624268 667.018311,1038.515747 
	C665.054871,1030.298218 661.065857,1023.895752 652.055115,1021.843689 
	C650.903564,1021.581421 649.710632,1019.844971 649.232483,1018.537109 
	C644.410706,1005.350891 639.734070,992.111633 634.976440,978.517944 
z"/>
<path fill="#8567F3" opacity="1.000000" stroke="none" 
	d="
M1365.351562,474.146179 
	C1364.987305,478.498291 1364.087158,482.600464 1364.066284,486.707092 
	C1363.935303,512.511230 1364.016846,538.316345 1363.968994,564.120972 
	C1363.964966,566.242676 1363.521118,568.363525 1363.007812,570.815552 
	C1351.819092,565.250793 1343.656982,556.941040 1339.954956,544.833923 
	C1336.442749,533.347046 1332.649658,521.920837 1329.808228,510.266052 
	C1328.632446,505.442657 1329.613281,500.093475 1329.613281,493.638611 
	C1316.627686,500.425537 1304.177490,509.127441 1291.376831,494.863983 
	C1291.556519,491.915833 1291.968506,489.617737 1291.971313,487.319153 
	C1292.012939,453.735840 1291.975708,420.152344 1292.047363,386.569122 
	C1292.052979,383.965179 1292.731079,381.362671 1293.096680,378.759491 
	C1306.826050,389.357086 1319.456543,401.114960 1328.893921,415.761475 
	C1341.269775,434.968658 1353.136353,454.504059 1365.351562,474.146179 
z"/>
<path fill="#A068E3" opacity="1.000000" stroke="none" 
	d="
M1185.136475,1180.403564 
	C1181.326416,1182.676270 1179.992676,1186.261963 1179.926270,1190.449463 
	C1179.861328,1194.542847 1179.911987,1198.638184 1179.911987,1204.098877 
	C1176.514282,1202.111206 1173.779053,1200.986328 1171.665039,1199.147217 
	C1169.318481,1197.105835 1167.376831,1194.528931 1165.547485,1191.978149 
	C1161.985107,1187.010986 1157.852295,1184.855957 1151.492188,1186.829468 
	C1142.697876,1189.558228 1133.670776,1191.536255 1124.372192,1193.382812 
	C1124.015259,1156.247681 1124.029419,1119.565430 1124.043579,1082.883057 
	C1125.387817,1081.256714 1127.133179,1079.817017 1127.994385,1077.965942 
	C1129.923950,1073.818359 1132.559814,1071.830933 1137.369629,1072.683838 
	C1140.257690,1073.196045 1143.310669,1072.777954 1146.686157,1072.777954 
	C1146.686157,1073.845825 1146.517822,1074.799927 1146.718384,1075.668701 
	C1147.277832,1078.090820 1147.989990,1080.477539 1148.641846,1082.878174 
	C1151.059570,1082.112671 1153.812134,1081.838867 1155.819946,1080.471313 
	C1159.200684,1078.168823 1162.108521,1075.171875 1165.252441,1072.434692 
	C1171.929810,1082.819580 1174.828491,1083.967407 1184.618408,1080.617432 
	C1185.045532,1114.166382 1185.090942,1147.285034 1185.136475,1180.403564 
z"/>
<path fill="#8F67ED" opacity="1.000000" stroke="none" 
	d="
M1292.908203,378.471313 
	C1292.731079,381.362671 1292.052979,383.965179 1292.047363,386.569122 
	C1291.975708,420.152344 1292.012939,453.735840 1291.971313,487.319153 
	C1291.968506,489.617737 1291.556519,491.915833 1291.172119,494.596497 
	C1272.096436,481.559540 1253.183228,468.140259 1234.122803,453.948914 
	C1234.020386,416.681549 1234.065308,380.186279 1234.110107,343.691010 
	C1254.997192,352.286133 1274.530518,363.160767 1291.772217,377.902557 
	C1292.000854,378.098053 1292.400146,378.094055 1292.908203,378.471313 
z"/>
<path fill="#8F67ED" opacity="1.000000" stroke="none" 
	d="
M1246.893311,1038.958984 
	C1270.654907,1021.347473 1294.416504,1003.735840 1318.885254,986.131287 
	C1320.393188,988.283447 1321.871704,990.422913 1321.889771,992.574646 
	C1322.064941,1013.387390 1321.965942,1034.202393 1322.036621,1055.016357 
	C1322.044434,1057.299561 1322.624268,1059.580811 1322.938721,1061.863037 
	C1321.993896,1065.288574 1320.834717,1068.671509 1320.143677,1072.147461 
	C1317.930298,1083.281982 1313.465698,1086.988770 1302.096680,1087.010986 
	C1298.963745,1087.017090 1295.720947,1086.899292 1292.719482,1087.626343 
	C1283.911621,1089.759644 1282.875488,1092.076050 1286.593872,1102.244263 
	C1275.414795,1092.136108 1265.392334,1099.559570 1255.222534,1102.183105 
	C1252.061646,1102.998413 1252.032349,1105.239990 1253.940674,1107.492798 
	C1255.979492,1109.899536 1258.298828,1112.073853 1260.274414,1114.527710 
	C1264.732788,1120.065796 1267.304443,1126.272827 1266.751709,1134.899414 
	C1262.147461,1129.983643 1258.196899,1126.081421 1254.643311,1121.846191 
	C1252.701782,1119.532227 1251.031006,1119.338501 1248.425659,1120.650635 
	C1248.026001,1095.227661 1248.038818,1070.193970 1247.951782,1045.160767 
	C1247.944580,1043.092285 1247.262085,1041.026245 1246.893311,1038.958984 
z"/>
<path fill="#9767E9" opacity="1.000000" stroke="none" 
	d="
M1246.562744,1039.038940 
	C1247.262085,1041.026245 1247.944580,1043.092285 1247.951782,1045.160767 
	C1248.038818,1070.193970 1248.026001,1095.227661 1248.054810,1120.744629 
	C1235.317627,1133.772705 1222.349609,1146.111938 1210.000244,1159.041992 
	C1207.641113,1161.512085 1207.401978,1166.259521 1206.776855,1170.053833 
	C1206.276855,1173.089478 1206.675781,1176.273071 1206.675781,1180.183350 
	C1199.703003,1180.183350 1192.826050,1180.183350 1185.542725,1180.293457 
	C1185.090942,1147.285034 1185.045532,1114.166382 1185.000244,1080.587280 
	C1205.411133,1066.457520 1225.821655,1052.788208 1246.562744,1039.038940 
z"/>
<path fill="#9767E9" opacity="1.000000" stroke="none" 
	d="
M1233.874146,343.437256 
	C1234.065308,380.186279 1234.020386,416.681549 1233.965576,453.653931 
	C1217.337891,442.869110 1200.728027,431.595276 1184.094360,420.356689 
	C1181.208130,418.406677 1178.221069,416.605774 1175.125000,413.967468 
	C1174.982788,384.199310 1174.996094,355.199768 1175.009521,326.200256 
	C1186.845337,328.963379 1198.786499,331.350067 1210.480347,334.620850 
	C1218.380005,336.830353 1225.931152,340.285492 1233.874146,343.437256 
z"/>
<path fill="#F16BB2" opacity="1.000000" stroke="none" 
	d="
M626.389404,750.014771 
	C625.730591,748.279785 625.050720,746.337769 625.048157,744.394836 
	C624.988892,700.069824 624.895020,655.744446 625.048706,611.419922 
	C625.129578,588.120178 625.705139,564.822388 625.934326,541.522522 
	C625.954285,539.497681 625.052734,537.463684 624.259399,535.203125 
	C632.800842,526.523193 641.563538,517.967712 650.548401,509.652252 
	C661.498962,499.517426 668.091919,486.940582 672.413757,472.546631 
	C673.234192,474.218994 673.943665,476.091614 673.952026,477.967346 
	C674.035339,496.577423 673.937256,515.188599 674.094360,533.797668 
	C674.111877,535.877869 675.392029,537.947449 676.086670,540.021912 
	C661.966736,563.142212 651.087341,587.730835 646.210083,614.388489 
	C642.399109,635.218201 640.504822,656.405151 637.954102,677.457031 
	C635.540466,697.378479 633.550659,717.352722 630.975769,737.252136 
	C630.419617,741.550354 628.159363,745.627991 626.389404,750.014771 
z"/>
<path fill="#E56BBA" opacity="1.000000" stroke="none" 
	d="
M698.130920,1100.341675 
	C698.319885,1095.581665 698.914856,1091.127441 698.960144,1086.667725 
	C699.362183,1047.117188 699.660828,1007.565796 700.024475,968.014954 
	C700.037964,966.549194 700.405273,965.086792 700.858643,963.286987 
	C715.206909,976.601196 729.304077,990.251221 743.603394,1004.478210 
	C743.537048,1007.522400 743.038513,1009.989197 743.034729,1012.456848 
	C742.983459,1045.618042 743.001160,1078.779419 743.001770,1111.940674 
	C726.667847,1113.826294 711.485718,1111.151978 698.130920,1100.341675 
z"/>
<path fill="#A868DE" opacity="1.000000" stroke="none" 
	d="
M1124.013428,1082.526367 
	C1124.029419,1119.565430 1124.015259,1156.247681 1124.002197,1193.388794 
	C1122.597046,1194.702026 1121.190796,1195.556519 1119.498657,1196.584595 
	C1119.757202,1197.660889 1120.003174,1198.746094 1120.279297,1199.823730 
	C1121.354004,1204.018066 1120.076294,1206.255371 1115.947754,1205.860840 
	C1111.784424,1205.462769 1107.348755,1204.702271 1103.694702,1202.816895 
	C1094.277222,1197.957397 1085.189209,1192.475464 1074.220947,1190.031006 
	C1073.956787,1165.228149 1074.004028,1141.119507 1073.943970,1117.011108 
	C1073.939697,1115.291870 1073.148071,1113.574463 1072.722656,1111.856201 
	C1077.343628,1107.870850 1082.020996,1103.947632 1086.534790,1099.844238 
	C1087.366943,1099.087646 1087.776489,1097.639160 1087.963257,1096.444824 
	C1088.422241,1093.509155 1088.637695,1090.535522 1089.000977,1087.107300 
	C1090.565186,1088.366699 1091.754395,1089.323975 1092.943604,1090.281372 
	C1093.421997,1090.167236 1093.900513,1090.053101 1094.378906,1089.938965 
	C1093.713013,1085.677124 1093.047119,1081.415283 1092.381226,1077.153442 
	C1092.600952,1076.972412 1092.820801,1076.791382 1093.040527,1076.610352 
	C1097.241211,1082.047607 1101.441895,1087.484863 1105.609741,1092.879761 
	C1112.149414,1083.407104 1112.993774,1083.065796 1116.738403,1088.328125 
	C1117.459473,1084.285645 1118.197632,1080.147705 1118.935669,1076.009766 
	C1119.445435,1075.880005 1119.955078,1075.750122 1120.464844,1075.620361 
	C1121.637573,1077.803345 1122.810425,1079.986450 1124.013428,1082.526367 
z"/>
<path fill="#DD6ABF" opacity="1.000000" stroke="none" 
	d="
M743.427246,1112.034180 
	C743.001160,1078.779419 742.983459,1045.618042 743.034729,1012.456848 
	C743.038513,1009.989197 743.537048,1007.522400 743.897095,1004.665039 
	C753.393860,1012.857239 762.849854,1021.384888 772.189148,1030.038452 
	C780.457214,1037.699341 788.595398,1045.500366 796.837524,1053.961670 
	C796.589417,1057.145996 796.045227,1059.607422 796.038940,1062.070312 
	C795.977539,1086.032715 796.006104,1109.995361 796.009033,1133.958008 
	C789.788330,1130.698242 782.726074,1128.421021 777.527466,1123.968018 
	C767.612549,1115.475342 756.469788,1112.108398 743.427246,1112.034180 
z"/>
<path fill="#E56BBA" opacity="1.000000" stroke="none" 
	d="
M676.379578,539.854919 
	C675.392029,537.947449 674.111877,535.877869 674.094360,533.797668 
	C673.937256,515.188599 674.035339,496.577423 673.952026,477.967346 
	C673.943665,476.091614 673.234192,474.218994 672.507019,472.172516 
	C675.416504,467.497955 678.141907,462.471039 682.011963,458.583740 
	C699.577637,440.939789 717.466003,423.617157 735.831055,406.326447 
	C736.949768,408.838654 737.911011,411.199463 737.932190,413.568665 
	C738.094849,431.812256 738.075317,450.057465 738.112244,468.302185 
	C725.092651,481.974854 711.642212,495.269836 699.205078,509.453339 
	C690.944458,518.874023 684.132751,529.565369 676.379578,539.854919 
z"/>
<path fill="#D46AC4" opacity="1.000000" stroke="none" 
	d="
M796.275269,1134.213867 
	C796.006104,1109.995361 795.977539,1086.032715 796.038940,1062.070312 
	C796.045227,1059.607422 796.589417,1057.145996 796.970215,1054.264038 
	C801.630554,1058.185059 806.171936,1062.561401 810.803772,1066.839600 
	C811.845581,1067.801880 813.352539,1069.252686 814.392761,1069.066650 
	C822.381714,1067.637451 831.176208,1068.040649 836.715637,1060.323608 
	C839.688782,1066.378906 837.118469,1070.943848 826.809937,1076.991943 
	C837.725281,1082.548096 848.210510,1087.885376 858.859985,1094.028931 
	C859.016113,1111.762085 859.052429,1128.689331 858.955872,1145.615723 
	C858.940002,1148.401978 858.340881,1151.184937 858.011292,1153.969360 
	C849.394104,1149.608398 840.841919,1145.110352 832.119385,1140.971313 
	C829.569031,1139.761108 826.558594,1139.429565 823.716675,1138.941650 
	C814.669006,1137.388550 805.601379,1135.951660 796.275269,1134.213867 
z"/>
<path fill="#8567F3" opacity="1.000000" stroke="none" 
	d="
M1323.222412,1061.693604 
	C1322.624268,1059.580811 1322.044434,1057.299561 1322.036621,1055.016357 
	C1321.965942,1034.202393 1322.064941,1013.387390 1321.889771,992.574646 
	C1321.871704,990.422913 1320.393188,988.283447 1319.207397,986.038940 
	C1330.733643,976.659119 1342.643066,967.376221 1354.572144,958.118530 
	C1354.762695,957.970520 1355.192993,958.131165 1355.768188,958.161255 
	C1355.488281,961.588074 1355.209473,965.002197 1354.930664,968.416260 
	C1355.189209,968.483154 1355.447754,968.549988 1355.706299,968.616882 
	C1357.338013,963.735046 1358.969849,958.853149 1360.605347,953.960022 
	C1368.587646,957.364990 1371.242188,956.609863 1375.870117,949.124939 
	C1383.296875,937.113159 1392.417236,926.643188 1403.501953,917.893127 
	C1405.279419,916.489929 1407.125366,915.173584 1409.895508,914.462158 
	C1405.786255,924.502502 1401.799072,934.594971 1397.546509,944.574219 
	C1379.221802,987.573853 1354.615723,1026.611450 1323.222412,1061.693604 
z"/>
<path fill="#C96ACA" opacity="1.000000" stroke="none" 
	d="
M858.234924,1154.231445 
	C858.340881,1151.184937 858.940002,1148.401978 858.955872,1145.615723 
	C859.052429,1128.689331 859.016113,1111.762085 859.033936,1094.359131 
	C866.321594,1095.926025 873.490356,1098.616821 880.902100,1099.866089 
	C893.270203,1101.950562 905.793823,1103.112915 918.625549,1105.309814 
	C919.029846,1133.728394 919.060486,1161.500732 919.091187,1189.273071 
	C917.196960,1189.572144 915.302795,1189.871216 913.031860,1190.229858 
	C913.031860,1185.569580 913.031860,1181.455933 913.031860,1176.024902 
	C906.493713,1183.459351 901.585388,1178.907227 896.114014,1175.692749 
	C883.696716,1168.397339 871.026184,1161.533081 858.234924,1154.231445 
z"/>
<path fill="#A068E3" opacity="1.000000" stroke="none" 
	d="
M1174.642944,326.117554 
	C1174.996094,355.199768 1174.982788,384.199310 1174.956055,413.677338 
	C1165.113892,408.370605 1154.892212,403.146393 1145.577637,396.626434 
	C1137.814209,391.192352 1129.206055,392.248383 1120.428223,390.382141 
	C1120.003540,371.737732 1120.051147,353.648621 1119.950439,335.560303 
	C1119.934082,332.613800 1119.261719,329.670959 1118.892456,326.726410 
	C1124.775635,326.220612 1130.658569,325.297821 1136.541992,325.295105 
	C1149.119995,325.289276 1161.698242,325.759613 1174.642944,326.117554 
z"/>
<path fill="#BB68D2" opacity="1.000000" stroke="none" 
	d="
M1023.870361,1186.514404 
	C1004.598999,1184.255615 985.290649,1183.355835 965.457886,1184.411621 
	C964.668640,1159.581543 964.336243,1135.280151 964.003906,1110.978638 
	C978.115906,1113.779053 992.292603,1116.297974 1006.307739,1119.519653 
	C1011.832031,1120.789673 1016.963318,1121.562866 1022.698120,1119.556519 
	C1023.448975,1121.607300 1023.957153,1123.231812 1023.958191,1124.856689 
	C1023.971375,1145.409302 1023.911560,1165.961792 1023.870361,1186.514404 
z"/>
<path fill="#C169CF" opacity="1.000000" stroke="none" 
	d="
M975.089844,593.988831 
	C983.812134,613.991089 974.976196,635.273560 955.404541,642.090698 
	C936.385193,648.715576 915.857422,637.901001 910.536682,618.453247 
	C905.961609,601.730591 914.570129,584.094421 930.596191,577.357910 
	C947.283569,570.343384 965.161926,576.904846 975.089844,593.988831 
z"/>
<path fill="#B169D9" opacity="1.000000" stroke="none" 
	d="
M1024.223267,1186.658203 
	C1023.911560,1165.961792 1023.971375,1145.409302 1023.958191,1124.856689 
	C1023.957153,1123.231812 1023.448975,1121.607300 1023.086670,1119.586426 
	C1035.343140,1117.145386 1047.679077,1115.036133 1060.041382,1113.093018 
	C1063.951416,1112.478394 1067.931274,1112.307739 1072.300903,1111.895142 
	C1073.148071,1113.574463 1073.939697,1115.291870 1073.943970,1117.011108 
	C1074.004028,1141.119507 1073.956787,1165.228149 1073.909302,1189.825195 
	C1067.200195,1190.901245 1060.522949,1191.569580 1053.831665,1192.030640 
	C1051.646362,1192.181030 1049.375977,1192.032471 1047.227051,1191.605591 
	C1039.657471,1190.101685 1032.123535,1188.417725 1024.223267,1186.658203 
z"/>
<path fill="#C169CF" opacity="1.000000" stroke="none" 
	d="
M963.686096,1110.749146 
	C964.336243,1135.280151 964.668640,1159.581543 965.002319,1184.338623 
	C949.997375,1186.298340 934.991211,1187.802612 919.538086,1189.290039 
	C919.060486,1161.500732 919.029846,1133.728394 918.998291,1105.488770 
	C933.787659,1106.854126 948.578003,1108.686890 963.686096,1110.749146 
z"/>
<path fill="#BB68D2" opacity="1.000000" stroke="none" 
	d="
M943.012024,316.048828 
	C957.765442,310.227844 972.664612,304.743317 987.209778,298.441528 
	C994.301086,295.369110 999.892944,297.110535 1005.511475,301.093567 
	C1007.676880,302.628632 1009.697144,304.373932 1011.737610,306.078522 
	C1019.453918,312.524567 1021.166504,313.078613 1030.956299,312.022614 
	C1030.956299,318.516418 1031.263062,324.995575 1030.876587,331.433044 
	C1030.419556,339.046875 1025.054321,344.654907 1017.334961,345.822845 
	C1012.920471,346.490753 1008.360229,347.030701 1003.940186,346.682404 
	C984.585266,345.157227 965.440857,346.635345 946.375793,349.909088 
	C945.560242,350.049164 944.718750,350.038239 943.451965,349.622223 
	C943.013733,338.114136 943.012878,327.081482 943.012024,316.048828 
z"/>
<path fill="#DD6ABF" opacity="1.000000" stroke="none" 
	d="
M738.423584,468.159119 
	C738.075317,450.057465 738.094849,431.812256 737.932190,413.568665 
	C737.911011,411.199463 736.949768,408.838654 736.138489,406.202850 
	C743.720459,399.054871 751.354065,391.883667 759.529175,385.394501 
	C766.056580,380.213196 774.110229,381.909912 781.684814,382.217194 
	C786.820740,382.425537 791.942932,382.969116 797.529358,383.901184 
	C798.042480,395.698364 798.097534,406.957184 798.152588,418.216003 
	C798.152588,418.216003 798.147522,418.117706 797.960083,418.213715 
	C797.510681,418.520203 797.248596,418.730682 796.986511,418.941162 
	C774.552673,431.718750 757.912048,451.372803 738.423584,468.159119 
z"/>
<path fill="#A965D6" opacity="1.000000" stroke="none" 
	d="
M1066.414062,825.550964 
	C1071.611206,825.842407 1076.370605,826.184631 1081.450317,826.549927 
	C1081.450317,818.289856 1081.450317,809.870789 1081.450317,801.108032 
	C1078.115845,801.108032 1074.696533,801.108032 1070.945801,801.108032 
	C1070.387085,798.961243 1069.857178,796.924988 1069.078003,793.931458 
	C1075.073242,792.634705 1080.644165,791.137329 1086.312500,790.299683 
	C1090.547607,789.673767 1094.552856,794.359619 1094.555542,799.307312 
	C1094.569580,825.301575 1094.562012,851.295898 1094.562256,877.290161 
	C1094.562378,887.045288 1094.734375,887.188660 1104.788940,885.382751 
	C1105.496826,887.236450 1106.236328,889.172913 1107.091187,891.411804 
	C1102.601685,893.460999 1098.480835,895.638977 1094.131104,897.163452 
	C1092.643311,897.684875 1090.126221,897.118408 1088.876221,896.085022 
	C1086.240479,893.905823 1084.130737,891.090271 1081.434448,888.128418 
	C1077.945435,890.440063 1073.945923,892.762939 1070.332886,895.581421 
	C1067.103760,898.100342 1063.767700,898.352844 1060.020020,897.591125 
	C1044.484619,894.433533 1033.916138,880.808655 1033.512451,863.341064 
	C1033.053833,843.500305 1046.338257,828.057007 1066.414062,825.550964 
M1081.782349,854.516724 
	C1081.782349,853.352661 1081.782349,852.188660 1081.782349,851.024597 
	C1081.782349,839.846436 1079.940674,837.559265 1068.825684,835.394897 
	C1066.729248,834.986694 1064.518555,835.205566 1062.376221,834.983948 
	C1058.233765,834.555359 1055.461060,836.532837 1053.255371,839.789062 
	C1046.656250,849.530640 1045.308716,860.166382 1048.598022,871.223083 
	C1052.925903,885.770996 1066.626953,890.601501 1079.468018,882.304138 
	C1080.672119,881.526062 1081.634888,879.457275 1081.679565,877.956909 
	C1081.903076,870.480469 1081.782104,862.993713 1081.782349,854.516724 
z"/>
<path fill="#D46AC4" opacity="1.000000" stroke="none" 
	d="
M798.505371,418.151855 
	C798.097534,406.957184 798.042480,395.698364 797.981934,384.008301 
	C803.657471,383.894226 806.120239,381.102966 808.379211,375.774109 
	C816.119446,357.514862 835.722595,342.587280 855.828003,344.042999 
	C857.956970,344.197144 860.062317,344.675751 862.588257,345.567566 
	C862.999146,355.236877 862.878357,364.345398 863.101440,373.445526 
	C863.147949,375.344757 864.465637,377.212830 865.197510,379.095245 
	C843.084412,392.092712 820.971252,405.090240 798.505371,418.151855 
z"/>
<path fill="#C96ACA" opacity="1.000000" stroke="none" 
	d="
M865.550781,379.056366 
	C864.465637,377.212830 863.147949,375.344757 863.101440,373.445526 
	C862.878357,364.345398 862.999146,355.236877 862.998047,345.676880 
	C867.683838,342.973633 872.820312,341.340668 876.942505,338.322479 
	C882.272278,334.420197 886.782776,329.401611 891.665222,324.884521 
	C893.617554,323.078369 895.419189,320.988342 897.662048,319.653595 
	C899.646484,318.472656 903.013428,316.925201 904.211548,317.764435 
	C905.868042,318.924774 906.658630,322.149811 906.746155,324.530121 
	C906.882446,328.234833 906.115479,331.972748 905.772034,335.301971 
	C918.105957,328.806274 930.190613,322.441864 942.643616,316.063110 
	C943.012878,327.081482 943.013733,338.114136 943.019897,349.621765 
	C920.363525,355.068207 898.603210,362.609497 877.837524,372.980347 
	C873.849426,374.972107 869.881348,377.004059 865.550781,379.056366 
z"/>
<path fill="#DD6ABF" opacity="1.000000" stroke="none" 
	d="
M757.426636,819.469971 
	C757.926147,842.059143 758.425659,864.648315 758.935608,887.710449 
	C761.959106,888.142456 765.696838,888.676514 769.704651,889.249207 
	C769.704651,891.302490 769.704651,893.378174 769.704651,895.947754 
	C758.579712,895.947754 747.621521,896.043335 736.670776,895.801880 
	C735.559509,895.777405 734.492981,893.723694 732.715149,891.905518 
	C736.410339,890.414001 738.879883,888.918518 741.529175,888.458374 
	C746.136108,887.658142 746.949585,885.115784 747.047974,880.856506 
	C747.548157,859.203308 748.408691,837.558350 749.129822,815.910095 
	C749.184814,814.258301 749.137024,812.603088 749.137024,810.531860 
	C745.486389,810.018066 741.932373,809.517883 738.227783,808.996460 
	C738.227783,806.836365 738.227783,804.874634 738.227783,802.262695 
	C747.334595,802.262695 756.287170,802.105896 765.220459,802.450195 
	C766.411255,802.496033 767.981995,804.907471 768.570740,806.518066 
	C777.357483,830.556763 786.008484,854.645142 794.994934,879.401855 
	C795.859619,884.705444 796.420837,889.328796 796.982056,893.952209 
	C793.834839,894.913086 790.687683,895.874023 786.913208,897.026428 
	C777.489563,870.978333 768.139404,845.133301 758.511536,818.723267 
	C758.046387,817.586243 757.858887,817.014282 757.671448,816.442322 
	C757.503113,816.467590 757.334717,816.492859 757.166382,816.518066 
	C757.253174,817.502075 757.339966,818.486023 757.426636,819.469971 
z"/>
<path fill="#B169D9" opacity="1.000000" stroke="none" 
	d="
M990.082642,716.335938 
	C990.627380,714.291016 991.910461,712.549438 991.899963,710.815674 
	C991.845093,701.749512 991.431091,692.686035 991.227844,683.619690 
	C991.198975,682.332581 991.639526,681.034851 991.937256,679.354370 
	C997.009766,684.285461 1002.088318,689.531433 1006.986816,694.940491 
	C1013.979370,702.661621 1022.495300,704.672974 1031.851318,700.714233 
	C1040.069946,697.236816 1047.910400,692.831482 1055.792969,688.603210 
	C1064.664185,683.844604 1074.342529,687.838501 1076.438599,697.422791 
	C1077.619385,702.822632 1075.933838,707.609375 1071.518677,710.647766 
	C1058.999512,719.263062 1045.733643,726.368774 1030.505615,729.099487 
	C1014.891663,731.899414 1001.698059,727.110596 990.082642,716.335938 
z"/>
<path fill="#A868DE" opacity="1.000000" stroke="none" 
	d="
M1118.538574,326.789520 
	C1119.261719,329.670959 1119.934082,332.613800 1119.950439,335.560303 
	C1120.051147,353.648621 1120.003540,371.737732 1120.008423,390.278015 
	C1101.028320,388.043091 1083.741577,381.689484 1070.565552,367.026215 
	C1060.582520,355.916199 1063.917480,339.980804 1077.589111,336.098999 
	C1087.909058,333.168854 1098.805298,332.261475 1108.486694,336.290405 
	C1111.833252,333.033722 1115.009033,329.943176 1118.538574,326.789520 
z"/>
<path fill="#9767E9" opacity="1.000000" stroke="none" 
	d="
M1215.737915,836.598755 
	C1216.921509,842.016052 1218.444824,847.196106 1219.903931,852.394226 
	C1223.027832,863.521912 1226.118408,874.658936 1229.331787,886.183533 
	C1229.752319,885.868286 1231.036011,885.421692 1231.274902,884.651184 
	C1236.222900,868.685669 1241.052124,852.683350 1246.026978,836.285645 
	C1242.347168,835.973633 1239.897095,835.765869 1237.181030,835.535583 
	C1237.181030,833.227356 1237.181030,831.145447 1237.181030,828.584961 
	C1246.261841,828.584961 1255.228516,828.429932 1264.176392,828.770874 
	C1265.366089,828.816223 1266.459961,831.379822 1268.697998,834.127625 
	C1257.102051,834.208435 1256.458374,842.177673 1254.041138,848.971802 
	C1248.256958,865.230469 1242.902832,881.698120 1236.026978,897.494629 
	C1230.491211,910.212463 1220.557983,919.750244 1208.107178,927.006348 
	C1205.787354,922.850220 1203.534912,918.814819 1201.002808,914.278198 
	C1210.509888,909.575562 1220.071289,905.009766 1227.615967,896.338440 
	C1221.169922,894.797546 1219.190552,890.083984 1217.388062,884.883545 
	C1212.599121,871.066772 1207.399048,857.392883 1202.549316,843.596375 
	C1200.836548,838.724060 1199.826172,833.467102 1192.294922,836.264038 
	C1192.294922,833.370911 1192.294922,831.302368 1192.294922,828.580322 
	C1201.509766,828.580322 1210.773071,828.424438 1220.018066,828.764038 
	C1221.269775,828.810120 1222.430420,831.341980 1224.062256,833.215332 
	C1220.610107,834.574219 1218.329346,835.471985 1215.737915,836.598755 
z"/>
<path fill="#D46AC4" opacity="1.000000" stroke="none" 
	d="
M797.348511,893.978149 
	C796.420837,889.328796 795.859619,884.705444 795.153809,879.759033 
	C799.317139,867.790649 803.693420,856.170105 807.914307,844.493225 
	C812.547607,831.675415 817.144653,818.841858 821.508789,805.931091 
	C822.496765,803.008240 823.869934,802.076599 826.856201,802.183838 
	C833.013550,802.405029 839.189514,802.400513 845.347473,802.188843 
	C848.543518,802.078918 850.064880,803.113953 849.777771,806.665283 
	C849.406311,806.918579 848.922119,807.366150 848.351685,807.620239 
	C839.338257,811.634705 839.411865,811.627441 839.615845,821.734131 
	C840.022522,841.889709 840.338806,862.047058 840.685547,882.203857 
	C840.713867,883.849792 840.689270,885.496643 840.689270,887.463989 
	C845.511841,888.072693 849.931091,888.630432 854.641907,889.224976 
	C854.641907,891.256531 854.641907,893.326843 854.641907,895.682861 
	C841.910461,895.682861 829.301147,895.682861 816.551086,895.682861 
	C814.761963,892.540527 815.868286,891.023865 819.339661,889.832520 
	C827.898987,886.895203 827.704895,886.731079 827.663025,877.427734 
	C827.571716,857.139221 827.634827,836.849976 827.634827,816.000549 
	C826.975769,817.535583 826.385010,818.739319 825.931946,819.992798 
	C817.627014,842.970459 809.369141,865.965149 800.989258,888.915405 
	C800.314392,890.763672 798.825500,892.314819 797.348511,893.978149 
z"/>
<path fill="#BB68D2" opacity="1.000000" stroke="none" 
	d="
M987.548706,826.528381 
	C1012.728760,822.041199 1025.439819,839.594788 1026.774292,858.523987 
	C1027.132690,863.605286 1026.735718,868.893982 1025.714478,873.888916 
	C1022.891541,887.696411 1013.241028,896.565491 999.695496,898.551514 
	C986.851440,900.434692 974.341553,894.408020 967.907288,882.474304 
	C960.894470,869.467102 960.795654,855.920715 967.208069,842.684692 
	C971.222778,834.398071 977.964783,828.833435 987.548706,826.528381 
M977.069336,852.094727 
	C976.881165,854.252136 976.567017,856.407166 976.526917,858.567322 
	C976.366638,867.208679 977.485107,875.566284 982.934570,882.692749 
	C990.622314,892.746094 1006.259094,891.558411 1010.572937,880.199280 
	C1015.320862,867.697144 1014.741333,854.988953 1008.538574,842.953308 
	C1005.080627,836.243469 999.025391,834.218445 991.708191,834.774414 
	C984.739563,835.303955 980.899292,839.225220 978.884644,845.485474 
	C978.274292,847.382202 977.758667,849.309509 977.069336,852.094727 
z"/>
<path fill="#C96ACA" opacity="1.000000" stroke="none" 
	d="
M873.590332,893.473755 
	C859.625244,884.669189 855.340271,871.889526 857.745117,856.668152 
	C860.074097,841.926453 867.752747,830.927734 882.683960,826.667542 
	C897.860901,822.337341 912.307007,830.908386 915.331238,845.447021 
	C916.557190,851.340515 910.460938,858.899414 904.416626,858.913513 
	C893.435730,858.939087 882.454773,858.920715 871.338501,858.920715 
	C869.311218,868.127808 874.364136,879.653625 882.879028,884.339539 
	C889.889221,888.197388 894.669312,887.967224 912.685608,882.795349 
	C913.327148,884.566467 913.980896,886.370972 914.752197,888.500244 
	C901.422119,894.033569 888.897156,903.118286 873.590332,893.473755 
M902.175049,845.629761 
	C899.725403,842.803894 897.697876,839.370789 894.721985,837.302124 
	C890.787109,834.566956 885.907532,832.666931 881.228455,835.573792 
	C875.969482,838.840881 873.334961,844.048218 872.024719,850.533447 
	C881.839111,850.066772 891.087708,849.600098 900.339478,849.208252 
	C902.364258,849.122498 903.690430,848.758728 902.175049,845.629761 
z"/>
<path fill="#A068E3" opacity="1.000000" stroke="none" 
	d="
M1171.067383,855.003967 
	C1171.067383,865.649658 1171.067383,875.795959 1171.067383,886.072144 
	C1175.535156,886.991882 1179.699341,887.849060 1184.177856,888.770996 
	C1183.850952,891.393982 1183.590820,893.480347 1183.309204,895.739929 
	C1171.833252,895.739929 1160.715576,895.739929 1149.323730,895.739929 
	C1149.137695,894.333130 1148.948364,892.901794 1148.776245,891.600586 
	C1149.238037,891.231689 1149.460693,890.960205 1149.747070,890.838806 
	C1158.230591,887.242188 1158.231567,887.244568 1158.231567,877.863403 
	C1158.231567,865.225159 1158.231567,852.586853 1158.231567,839.525513 
	C1155.085693,839.525513 1152.353394,839.525513 1149.816772,839.525513 
	C1147.511719,834.124695 1149.089966,831.140564 1154.477295,830.482910 
	C1157.704712,830.088989 1158.306885,828.312683 1158.306763,825.372375 
	C1158.306396,819.556519 1158.114624,813.626831 1159.141602,807.950500 
	C1160.821777,798.665710 1166.141602,791.738342 1175.469727,788.885925 
	C1183.940918,786.295532 1191.539551,788.220764 1198.295776,794.846497 
	C1195.707275,798.565552 1193.172241,802.207642 1190.443359,806.128235 
	C1184.105591,801.223145 1177.594360,797.376831 1168.645020,800.634277 
	C1169.676147,809.678894 1170.719238,818.829712 1171.811279,828.409424 
	C1176.970581,828.409424 1181.726685,828.409424 1186.411133,828.409424 
	C1188.757690,833.807434 1184.538940,836.189514 1181.841675,837.966797 
	C1179.098389,839.774292 1175.087891,839.658569 1171.067383,840.503662 
	C1171.067383,844.916931 1171.067383,849.710754 1171.067383,855.003967 
z"/>
<path fill="#A965D6" opacity="1.000000" stroke="none" 
	d="
M1046.248169,642.936890 
	C1047.085449,641.586792 1047.817139,640.170654 1047.826538,638.749817 
	C1047.914429,625.421265 1047.800293,612.090759 1047.981079,598.764038 
	C1048.002930,597.161011 1049.032715,594.647644 1050.261841,594.125610 
	C1065.540894,587.636292 1080.943481,581.437683 1096.793945,574.968689 
	C1096.895264,576.603210 1097.036499,577.830872 1097.037598,579.058594 
	C1097.051880,595.886658 1097.063965,612.714783 1097.037476,629.542847 
	C1097.027466,635.941895 1094.619385,639.923706 1088.907227,641.866211 
	C1082.684448,643.982239 1076.339111,644.222900 1070.961548,639.651367 
	C1067.819336,636.979980 1068.459106,633.278503 1072.172363,630.954529 
	C1077.607178,627.553223 1083.447998,627.629761 1089.660889,629.939575 
	C1089.660889,616.729187 1089.660889,604.123840 1089.660889,591.049500 
	C1088.414795,591.426147 1087.197021,591.693665 1086.057617,592.154663 
	C1077.431396,595.644043 1068.876465,599.319397 1060.175537,602.610107 
	C1056.935669,603.835510 1055.587769,605.346130 1055.682617,609.019104 
	C1055.966553,620.008362 1055.656128,631.011780 1055.836792,642.005371 
	C1055.932251,647.814880 1053.891724,652.112427 1048.426758,654.322388 
	C1042.113403,656.875427 1035.702393,657.250061 1029.784668,653.371887 
	C1026.903320,651.483521 1027.322021,647.698547 1030.608032,645.421936 
	C1035.199219,642.241211 1040.321167,641.218628 1046.248169,642.936890 
z"/>
<path fill="#C169CF" opacity="1.000000" stroke="none" 
	d="
M946.752869,801.250366 
	C946.752869,829.842529 946.752869,857.967407 946.752869,886.335815 
	C950.211975,887.201538 953.507507,888.026245 957.119568,888.930237 
	C956.717590,891.423767 956.380188,893.516785 955.985352,895.966248 
	C946.007202,895.966248 936.219788,895.895142 926.434326,896.002380 
	C922.693481,896.043335 923.162720,893.657959 923.202393,891.279297 
	C923.835876,890.933472 924.382080,890.423218 924.988953,890.336243 
	C933.114563,889.171753 934.280823,884.175171 934.114807,876.748230 
	C933.594055,853.453796 933.923218,830.140320 933.923218,806.834229 
	C933.923218,805.025391 933.923157,803.216553 933.923157,801.077393 
	C930.218506,801.077393 926.818604,801.077393 923.119324,801.077393 
	C922.584290,798.958008 922.070374,796.922058 921.310059,793.910278 
	C927.304504,792.616699 932.857178,791.046692 938.518372,790.310364 
	C943.353516,789.681396 946.743164,794.383057 946.752869,801.250366 
z"/>
<path fill="#A068E3" opacity="1.000000" stroke="none" 
	d="
M1114.594604,837.037354 
	C1112.692871,837.055359 1111.212036,837.055359 1109.497192,837.055359 
	C1108.969482,835.124390 1108.458008,833.252686 1107.591431,830.081909 
	C1113.901123,828.781372 1119.903687,827.247498 1126.001953,826.409851 
	C1129.145386,825.977966 1133.050659,830.913757 1133.056519,834.527100 
	C1133.082764,850.514221 1133.063843,866.501282 1133.076294,882.488403 
	C1133.077393,883.791016 1133.191162,885.093506 1133.253296,886.410522 
	C1136.663208,887.234680 1139.836426,888.001587 1143.289429,888.836121 
	C1143.087402,891.292847 1142.914917,893.389771 1142.724121,895.709229 
	C1131.774292,895.709229 1121.155762,895.709229 1110.267944,895.709229 
	C1110.035767,894.421631 1109.779419,892.999573 1109.511841,891.515808 
	C1110.212646,891.061890 1110.721313,890.479492 1111.302856,890.393921 
	C1119.447144,889.195374 1120.748413,884.154846 1120.384644,876.735962 
	C1119.742554,863.642151 1120.204834,850.494324 1120.204834,837.019348 
	C1118.212646,837.019348 1116.614136,837.019348 1114.594604,837.037354 
z"/>
<path fill="#A068E3" opacity="1.000000" stroke="none" 
	d="
M1132.865234,799.087891 
	C1138.124023,803.651062 1133.554565,806.550903 1131.468140,809.687439 
	C1129.154419,813.165527 1126.444580,813.610168 1122.782959,811.019592 
	C1115.575684,805.920532 1115.700684,798.743408 1124.000732,795.113647 
	C1125.950562,794.260986 1129.688721,797.497437 1132.865234,799.087891 
z"/>
<path fill="#D46AC4" opacity="1.000000" stroke="none" 
	d="
M797.260681,418.922913 
	C797.248596,418.730682 797.510681,418.520203 798.009277,418.216339 
	C798.008850,418.383514 797.771851,418.644073 797.260681,418.922913 
z"/>
<path fill="#000000" opacity="1.000000" stroke="none" 
	d="
M635.614014,884.992188 
	C639.129456,892.662048 642.330017,900.156067 645.829590,908.350342 
	C643.245728,906.810852 640.965210,905.452087 638.338501,904.096252 
	C636.340942,899.830994 634.658630,895.574585 633.047241,891.291443 
	C631.520630,887.233521 630.128723,883.124084 628.551697,879.086426 
	C627.980652,877.624390 627.045044,876.304626 626.157227,874.706482 
	C630.651794,875.120544 631.177307,875.728882 635.614014,884.992188 
z"/>
<path fill="#000000" opacity="1.000000" stroke="none" 
	d="
M616.296509,875.644348 
	C617.388611,876.062927 618.594238,876.452393 618.820190,877.156311 
	C620.438171,882.197205 621.856750,887.302063 622.725159,892.595764 
	C620.124634,889.272095 617.770630,885.710510 614.855530,882.690430 
	C611.828552,879.554321 612.819458,877.628479 616.296509,875.644348 
z"/>
<path fill="#000000" opacity="1.000000" stroke="none" 
	d="
M1081.782349,855.013672 
	C1081.782104,862.993713 1081.903076,870.480469 1081.679565,877.956909 
	C1081.634888,879.457275 1080.672119,881.526062 1079.468018,882.304138 
	C1066.626953,890.601501 1052.925903,885.770996 1048.598022,871.223083 
	C1045.308716,860.166382 1046.656250,849.530640 1053.255371,839.789062 
	C1055.461060,836.532837 1058.233765,834.555359 1062.376221,834.983948 
	C1064.518555,835.205566 1066.729248,834.986694 1068.825684,835.394897 
	C1079.940674,837.559265 1081.782349,839.846436 1081.782349,851.024597 
	C1081.782349,852.188660 1081.782349,853.352661 1081.782349,855.013672 
z"/>
<path fill="#000000" opacity="1.000000" stroke="none" 
	d="
M757.631470,819.303833 
	C757.339966,818.486023 757.253174,817.502075 757.166382,816.518066 
	C757.334717,816.492859 757.503113,816.467590 757.671448,816.442322 
	C757.858887,817.014282 758.046387,817.586243 758.236877,818.478394 
	C758.105408,818.911682 757.970825,819.024719 757.631470,819.303833 
z"/>
<path fill="#000000" opacity="1.000000" stroke="none" 
	d="
M977.134460,851.658752 
	C977.758667,849.309509 978.274292,847.382202 978.884644,845.485474 
	C980.899292,839.225220 984.739563,835.303955 991.708191,834.774414 
	C999.025391,834.218445 1005.080627,836.243469 1008.538574,842.953308 
	C1014.741333,854.988953 1015.320862,867.697144 1010.572937,880.199280 
	C1006.259094,891.558411 990.622314,892.746094 982.934570,882.692749 
	C977.485107,875.566284 976.366638,867.208679 976.526917,858.567322 
	C976.567017,856.407166 976.881165,854.252136 977.134460,851.658752 
z"/>
<path fill="#000000" opacity="1.000000" stroke="none" 
	d="
M902.342529,845.992249 
	C903.690430,848.758728 902.364258,849.122498 900.339478,849.208252 
	C891.087708,849.600098 881.839111,850.066772 872.024719,850.533447 
	C873.334961,844.048218 875.969482,838.840881 881.228455,835.573792 
	C885.907532,832.666931 890.787109,834.566956 894.721985,837.302124 
	C897.697876,839.370789 899.725403,842.803894 902.342529,845.992249 
z"/>
</svg>